<svg width="800" height="400" viewBox="0 0 800 400" xmlns="http://www.w3.org/2000/svg"><mask id="satori_om-id"><rect x="0" y="0" width="800" height="400" fill="#fff"/></mask><rect x="0" y="0" width="800" height="400" fill="#fff"/><clipPath id="satori_cp-id-0"><rect x="300" y="76" width="200" height="200"/></clipPath><mask id="satori_om-id-0"><rect x="300" y="76" width="200" height="200" fill="#fff"/></mask><image x="300" y="76" width="200" height="200" href="data:image/svg+xml;utf8,%3Csvg  fill=%22%23000%22 xmlns=%22http://www.w3.org/2000/svg%22 width=%22NaN%22 height=%22null%22 viewBox=%220 0 500 500%22%3E%3Cpath d=%22m385.42 326.45c7.5002 11.979 14.799 23.656 22.202 35.5-8.1935 5.0413-16.606 4.262-24.579 4.2893-37.649 0.12912-75.301-0.41928-112.95-0.33032-23.302 0.055023-46.602 0.98456-69.905 1.2102-18.151 0.17575-36.306-0.15396-54.46-0.21256-14.984-0.04837-29.969 0.065522-44.951-0.081878-6.7307-0.066223-7.8922-1.4271-4.9177-7.4055 6.1438-12.349 12.832-24.436 19.572-36.476 6.175-11.03 12.936-21.733 19.035-32.803 7.134-12.949 13.653-26.236 20.755-39.204 13.59-24.818 27.295-49.574 41.159-74.24 10.441-18.576 21.402-36.862 31.75-55.488 6.0504-10.891 11.318-22.216 17.019-33.303 1.1251-2.1883 2.622-4.1855 4.8904-7.7543 5.7382 9.557 11.258 17.968 16.005 26.795 18.521 34.436 36.581 69.122 55.249 103.48 10.482 19.291 22.071 37.979 32.702 57.193 10.704 19.346 20.84 39.008 31.426 58.833m-147.65-196.09c-6.8811 12.731-13.765 25.46-20.643 38.193-26.635 49.31-53.288 98.611-79.886 147.94-5.3618 9.9441-10.83 19.852-15.653 30.058-3.1228 6.6081-2.2816 7.4296 4.9122 7.4871 25.804 0.20612 51.609 0.60953 77.412 0.4834 25.964-0.12695 51.924-1.0068 77.888-1.1692 26.313-0.16449 52.629 0.23712 78.943 0.1875 7.2331-0.013611 14.465-0.75507 22.485-1.2069-1.2543-2.8544-1.9446-4.8765-2.9768-6.7055-12.26-21.723-24.719-43.336-36.793-65.161-4.5791-8.277-7.9431-17.224-12.489-25.522-11.912-21.741-24.535-43.098-36.183-64.977-10.707-20.111-20.396-40.762-30.776-61.05-3.9071-7.6365-8.4975-14.923-12.776-22.37-0.55866 0.038421-1.1173 0.076835-1.6759 0.11526-3.8183 7.6772-7.6366 15.354-11.787 23.696z%22%3E%3C/path%3E%3Cpath d=%22m225.1 291.91c-1.6356-3.1e-5 -2.8994 0.28671-3.9451-0.068634-1.493-0.50739-3.5675-1.1808-4.0422-2.3378-0.60886-1.484-0.52339-3.9944 0.38878-5.2343 4.2394-5.7626 9.1434-11.044 13.267-16.881 3.1425-4.4477 6.4169-6.9789 12.279-4.0055v21.656c2.279 0.15097 4.193 0.27777 6.0605 0.40149 1.3418 5.7549 1.0544 6.1013-5.3554 6.7429-3.8485 4.8808 4.2317 4.6031 3.5826 8.5007h-20.87c0.3517-4.5121 8.8479-2.2303 6.2637-8.7733h-7.6303m3.7686-6.0166c1.3887-0.10904 2.7774-0.21808 3.7849-0.29718v-11.418c-2.9601 4.3854-5.2821 7.8253-7.9156 11.727 1.6734 0 2.4826 0 4.1308-0.012238z%22%3E%3C/path%3E%3Cpath d=%22m279.98 285.16c2.0652 0.14368 3.6948 0.14368 5.3178 0.14368 1.7896 5.8358-1.0354 7.2611-5.957 6.5522v4.3891c1.4268 1.0446 2.9593 2.1665 4.4917 3.2884-0.23108 0.36005-0.46219 0.72012-0.69327 1.0802h-20.718c0.54193-4.3939 8.8558-2.2182 6.2835-8.7031-3.8832 0-7.8742 0.17319-11.835-0.096772-1.3314-0.090728-3.3237-1.0383-3.7032-2.0744-0.57408-1.5672-0.6989-4.0794 0.20068-5.2777 5.2959-7.0544 10.67-14.098 16.655-20.555 1.615-1.7427 5.4395-1.4379 9.5222-2.3605 0 8.6894 0 16.08 0.43567 23.615m-10.962-2.7256v-7.1547c-0.32431-0.064179-0.64862-0.12836-0.97296-0.19254-2.3341 3.451-4.6682 6.902-7.0024 10.353 2.9108-0.79971 6.9207 3.0047 7.9753-3.0058z%22%3E%3C/path%3E%3C/svg%3E" preserveAspectRatio="none" clip-path="url(#satori_cp-id-0)" mask="url(#satori_om-id-0)"/><mask id="satori_om-id-0-0"><rect x="300" y="76" width="0" height="200" fill="#fff"/></mask><mask id="satori_om-id-0-1"><rect x="300" y="76" width="0" height="200" fill="#fff"/></mask><mask id="satori_om-id-0-2"><rect x="300" y="76" width="0" height="200" fill="#fff"/></mask><mask id="satori_om-id-1"><rect x="278" y="276" width="244" height="48" fill="#fff"/></mask><path fill="black" d="M286.7 313.4L280.5 313.4L280.5 284.3L299.8 284.3L299.8 289.4L286.7 289.4L286.7 296.4L298.5 296.4L298.5 301.4L286.7 301.4L286.7 313.4ZM309.8 313.9L309.8 313.9Q307.7 313.9 306.0 313.1Q304.4 312.4 303.5 310.9Q302.5 309.5 302.5 307.3L302.5 307.3Q302.5 305.5 303.2 304.3Q303.9 303.1 305.0 302.3Q306.2 301.6 307.6 301.2Q309.1 300.8 310.7 300.6L310.7 300.6Q312.6 300.4 313.8 300.3Q314.9 300.1 315.5 299.7Q316.0 299.4 316.0 298.7L316.0 298.7L316.0 298.6Q316.0 297.2 315.2 296.5Q314.3 295.8 312.8 295.8L312.8 295.8Q311.1 295.8 310.2 296.5Q309.2 297.2 308.9 298.3L308.9 298.3L303.3 297.8Q303.7 295.8 305.0 294.4Q306.2 292.9 308.2 292.1Q310.2 291.3 312.8 291.3L312.8 291.3Q314.6 291.3 316.3 291.8Q317.9 292.2 319.2 293.1Q320.5 294.0 321.3 295.4Q322.0 296.8 322.0 298.7L322.0 298.7L322.0 313.4L316.3 313.4L316.3 310.4L316.1 310.4Q315.6 311.4 314.7 312.2Q313.9 313.0 312.6 313.4Q311.4 313.9 309.8 313.9ZM311.5 309.7L311.5 309.7Q312.8 309.7 313.9 309.1Q314.9 308.6 315.5 307.7Q316.0 306.8 316.0 305.6L316.0 305.6L316.0 303.3Q315.8 303.5 315.3 303.7Q314.8 303.8 314.2 303.9Q313.6 304.1 312.9 304.1Q312.3 304.2 311.8 304.3L311.8 304.3Q310.8 304.5 310.0 304.8Q309.2 305.1 308.7 305.7Q308.3 306.3 308.3 307.1L308.3 307.1Q308.3 308.4 309.2 309.0Q310.1 309.7 311.5 309.7ZM332.8 300.8L332.8 300.8L332.8 313.4L326.8 313.4L326.8 291.6L332.5 291.6L332.5 295.5L332.8 295.5Q333.5 293.6 335.2 292.5Q336.9 291.3 339.3 291.3L339.3 291.3Q341.6 291.3 343.3 292.3Q345.0 293.3 345.9 295.2Q346.9 297.0 346.9 299.5L346.9 299.5L346.9 313.4L340.8 313.4L340.8 300.6Q340.8 298.6 339.8 297.5Q338.8 296.4 336.9 296.4L336.9 296.4Q335.7 296.4 334.8 296.9Q333.9 297.4 333.3 298.4Q332.8 299.4 332.8 300.8ZM361.5 313.9L361.5 313.9Q358.1 313.9 355.7 312.4Q353.3 311.0 352.0 308.5Q350.7 305.9 350.7 302.6L350.7 302.6Q350.7 299.3 352.0 296.7Q353.3 294.2 355.7 292.8Q358.1 291.3 361.5 291.3L361.5 291.3Q364.3 291.3 366.5 292.4Q368.6 293.4 369.8 295.3Q371.1 297.2 371.2 299.7L371.2 299.7L365.5 299.7Q365.3 298.1 364.2 297.1Q363.2 296.1 361.6 296.1L361.6 296.1Q360.1 296.1 359.1 296.8Q358.1 297.6 357.5 299.0Q356.9 300.5 356.9 302.5L356.9 302.5Q356.9 304.6 357.5 306.1Q358.0 307.5 359.1 308.3Q360.1 309.1 361.6 309.1L361.6 309.1Q362.6 309.1 363.4 308.7Q364.3 308.2 364.8 307.4Q365.3 306.6 365.5 305.4L365.5 305.4L371.2 305.4Q371.1 307.9 369.9 309.8Q368.7 311.7 366.5 312.8Q364.4 313.9 361.5 313.9ZM378.9 321.6L378.9 321.6Q377.7 321.6 376.7 321.4Q375.7 321.3 375.0 321.0L375.0 321.0L376.4 316.5Q377.5 316.8 378.3 316.8Q379.2 316.9 379.8 316.4Q380.5 316.0 380.9 315.0L380.9 315.0L381.2 314.1L373.4 291.6L379.7 291.6L384.3 307.6L384.5 307.6L389.1 291.6L395.5 291.6L387.0 315.8Q386.4 317.6 385.3 318.9Q384.3 320.2 382.7 320.9Q381.1 321.6 378.9 321.6Z M426.4 284.3L432.5 284.3L432.5 313.4L427.2 313.4L414.6 295.1L414.4 295.1L414.4 313.4L408.2 313.4L408.2 284.3L413.6 284.3L426.2 302.6L426.4 302.6L426.4 284.3ZM447.4 313.9L447.4 313.9Q444.1 313.9 441.6 312.5Q439.2 311.0 437.9 308.5Q436.6 306.0 436.6 302.6L436.6 302.6Q436.6 299.2 437.9 296.7Q439.2 294.2 441.6 292.8Q444.1 291.3 447.4 291.3L447.4 291.3Q450.7 291.3 453.1 292.8Q455.5 294.2 456.8 296.7Q458.1 299.2 458.1 302.6L458.1 302.6Q458.1 306.0 456.8 308.5Q455.5 311.0 453.1 312.5Q450.7 313.9 447.4 313.9ZM447.4 309.2L447.4 309.2Q448.9 309.2 449.9 308.3Q450.9 307.5 451.4 306.0Q451.9 304.5 451.9 302.6L451.9 302.6Q451.9 300.7 451.4 299.2Q450.9 297.7 449.9 296.8Q448.9 296.0 447.4 296.0L447.4 296.0Q445.9 296.0 444.8 296.8Q443.8 297.7 443.3 299.2Q442.8 300.7 442.8 302.6L442.8 302.6Q442.8 304.5 443.3 306.0Q443.8 307.5 444.8 308.3Q445.9 309.2 447.4 309.2ZM460.5 291.6L473.7 291.6L473.7 296.2L460.5 296.2L460.5 291.6ZM463.5 307.5L463.5 286.4L469.5 286.4L469.5 306.7Q469.5 307.6 469.8 308.0Q470.1 308.5 470.5 308.7Q471.0 308.9 471.6 308.9L471.6 308.9Q472.0 308.9 472.4 308.8Q472.9 308.7 473.1 308.7L473.1 308.7L474.1 313.2Q473.6 313.3 472.8 313.5Q471.9 313.7 470.8 313.7L470.8 313.7Q468.6 313.8 466.9 313.2Q465.3 312.5 464.4 311.1Q463.5 309.7 463.5 307.5L463.5 307.5ZM487.3 313.9L487.3 313.9Q483.9 313.9 481.5 312.5Q479.1 311.1 477.8 308.6Q476.5 306.1 476.5 302.6L476.5 302.6Q476.5 299.3 477.8 296.7Q479.1 294.2 481.5 292.8Q483.9 291.3 487.1 291.3L487.1 291.3Q489.2 291.3 491.1 292.0Q493.0 292.7 494.4 294.1Q495.8 295.5 496.5 297.6Q497.3 299.6 497.3 302.4L497.3 302.4L497.3 304.1L478.9 304.1L478.9 300.3L491.6 300.3Q491.6 299.0 491.1 298.0Q490.5 297.0 489.5 296.4Q488.5 295.9 487.2 295.9L487.2 295.9Q485.8 295.9 484.7 296.5Q483.7 297.1 483.1 298.2Q482.5 299.2 482.5 300.5L482.5 300.5L482.5 304.1Q482.5 305.7 483.1 306.9Q483.7 308.1 484.8 308.7Q485.9 309.3 487.4 309.3L487.4 309.3Q488.4 309.3 489.3 309.1Q490.1 308.8 490.7 308.2Q491.3 307.6 491.6 306.8L491.6 306.8L497.2 307.2Q496.8 309.2 495.5 310.7Q494.1 312.2 492.1 313.0Q490.0 313.9 487.3 313.9ZM519.4 297.8L519.4 297.8L513.9 298.2Q513.7 297.5 513.3 296.9Q512.8 296.3 512.0 296.0Q511.3 295.6 510.2 295.6L510.2 295.6Q508.8 295.6 507.9 296.2Q506.9 296.8 506.9 297.8L506.9 297.8Q506.9 298.6 507.5 299.1Q508.1 299.6 509.7 300.0L509.7 300.0L513.6 300.8Q516.8 301.4 518.4 302.9Q519.9 304.3 519.9 306.7L519.9 306.7Q519.9 308.8 518.7 310.4Q517.4 312.1 515.2 313.0Q513.0 313.9 510.2 313.9L510.2 313.9Q505.9 313.9 503.3 312.1Q500.7 310.2 500.3 307.1L500.3 307.1L506.3 306.8Q506.5 308.1 507.6 308.8Q508.6 309.5 510.2 309.5L510.2 309.5Q511.8 309.5 512.8 308.9Q513.8 308.3 513.8 307.3L513.8 307.3Q513.8 306.5 513.1 305.9Q512.4 305.4 511.0 305.1L511.0 305.1L507.2 304.4Q504.0 303.7 502.4 302.1Q500.9 300.6 500.9 298.1L500.9 298.1Q500.9 296.0 502.0 294.5Q503.2 293.0 505.3 292.2Q507.3 291.3 510.1 291.3L510.1 291.3Q514.3 291.3 516.6 293.1Q519.0 294.8 519.4 297.8Z "/></svg>