<svg xmlns="http://www.w3.org/2000/svg" width="800" height="400" viewBox="0 0 800 400"><defs><pattern id="satori_pattern_id_0" width="1" height="1" x="0" y="0" patternUnits="objectBoundingBox"><linearGradient id="satori_biid_0" x1="0" x2="0" y1="0" y2="1"><stop offset="0%" stop-color="#dbf4ff"/><stop offset="100%" stop-color="#fff1f1"/></linearGradient><rect width="800" height="400" x="0" y="0" fill="url(#satori_biid_0)"/></pattern></defs><rect width="800" height="400" x="0" y="0" fill="url(#satori_pattern_id_0)"/><clipPath id="satori_bct-id-0"><path d="M329.0 183.2L319.8 183.2L319.8 139.5L348.7 139.5L348.7 147.1L329.0 147.1L329.0 157.5L346.8 157.5L346.8 165.1L329.0 165.1L329.0 183.2ZM361.6 183.8L361.6 183.8Q358.5 183.8 356.1 182.7Q353.6 181.6 352.2 179.4Q350.8 177.3 350.8 174.0L350.8 174.0Q350.8 171.3 351.8 169.4Q352.8 167.6 354.5 166.5Q356.2 165.3 358.4 164.8Q360.6 164.2 363.1 163.9L363.1 163.9Q365.9 163.6 367.7 163.4Q369.4 163.1 370.2 162.6Q371.0 162.0 371.0 161.0L371.0 161.0L371.0 160.9Q371.0 158.8 369.7 157.7Q368.5 156.6 366.1 156.6L366.1 156.6Q363.7 156.6 362.2 157.7Q360.8 158.8 360.3 160.4L360.3 160.4L351.9 159.7Q352.6 156.7 354.4 154.6Q356.3 152.4 359.3 151.2Q362.3 150.0 366.2 150.0L366.2 150.0Q368.9 150.0 371.4 150.6Q373.9 151.3 375.9 152.6Q377.8 154.0 378.9 156.1Q380.1 158.2 380.1 161.1L380.1 161.1L380.1 183.2L371.5 183.2L371.5 178.6L371.2 178.6Q370.4 180.2 369.1 181.3Q367.8 182.5 365.9 183.1Q364.1 183.8 361.6 183.8ZM364.2 177.5L364.2 177.5Q366.2 177.5 367.8 176.7Q369.3 175.9 370.2 174.6Q371.1 173.2 371.1 171.5L371.1 171.5L371.1 168.0Q370.6 168.3 369.9 168.5Q369.2 168.7 368.2 168.9Q367.3 169.1 366.4 169.2Q365.5 169.4 364.8 169.5L364.8 169.5Q363.2 169.7 362.0 170.2Q360.8 170.7 360.1 171.6Q359.4 172.4 359.4 173.7L359.4 173.7Q359.4 175.6 360.8 176.5Q362.2 177.5 364.2 177.5ZM394.2 164.2L394.2 164.2L394.2 183.2L385.1 183.2L385.1 150.4L393.8 150.4L393.8 156.2L394.2 156.2Q395.2 153.4 397.8 151.7Q400.4 150.0 404.0 150.0L404.0 150.0Q407.4 150.0 409.9 151.5Q412.5 153.0 413.9 155.7Q415.3 158.5 415.3 162.3L415.3 162.3L415.3 183.2L406.2 183.2L406.2 163.9Q406.2 160.9 404.7 159.2Q403.1 157.5 400.4 157.5L400.4 157.5Q398.6 157.5 397.2 158.3Q395.8 159.1 395.0 160.6Q394.2 162.1 394.2 164.2ZM435.2 183.8L435.2 183.8Q430.2 183.8 426.6 181.7Q423.0 179.5 421.0 175.7Q419.1 171.9 419.1 166.9L419.1 166.9Q419.1 161.9 421.1 158.1Q423.0 154.3 426.6 152.1Q430.2 150.0 435.2 150.0L435.2 150.0Q439.5 150.0 442.7 151.6Q445.9 153.1 447.8 155.9Q449.6 158.7 449.8 162.5L449.8 162.5L441.3 162.5Q440.9 160.1 439.4 158.6Q437.8 157.1 435.3 157.1L435.3 157.1Q433.2 157.1 431.7 158.2Q430.1 159.4 429.2 161.5Q428.3 163.7 428.3 166.8L428.3 166.8Q428.3 169.9 429.2 172.1Q430.1 174.3 431.6 175.5Q433.2 176.6 435.3 176.6L435.3 176.6Q436.9 176.6 438.1 176.0Q439.4 175.3 440.2 174.1Q441.0 172.9 441.3 171.2L441.3 171.2L449.8 171.2Q449.6 174.9 447.8 177.8Q446.0 180.6 442.8 182.2Q439.6 183.8 435.2 183.8ZM459.3 195.4L459.3 195.4Q457.6 195.4 456.1 195.2Q454.5 194.9 453.6 194.5L453.6 194.5L455.6 187.7Q457.2 188.2 458.5 188.3Q459.8 188.3 460.7 187.7Q461.7 187.0 462.3 185.5L462.3 185.5L462.8 184.1L451.1 150.4L460.6 150.4L467.4 174.5L467.7 174.5L474.6 150.4L484.2 150.4L471.5 186.7Q470.5 189.3 469.0 191.3Q467.4 193.3 465.0 194.4Q462.6 195.4 459.3 195.4Z"/></clipPath><defs><pattern id="satori_pattern_id-0_0" width="1" height="1" x="0" y="0" patternUnits="objectBoundingBox"><linearGradient id="satori_biid-0_0" x1="0" x2="1" y1="0" y2="0"><stop offset="0%" stop-color="#007CF0"/><stop offset="100%" stop-color="#00DFD8"/></linearGradient><rect width="168" height="73" x="0" y="0" fill="url(#satori_biid-0_0)"/></pattern></defs><rect width="168" height="73" x="316" y="127" fill="url(#satori_pattern_id-0_0)" clip-path="url(#satori_bct-id-0)"/><clipPath id="satori_bct-id-1"><path d="M349.1 212.5L358.3 212.5L358.3 256.2L350.3 256.2L331.3 228.7L331.0 228.7L331.0 256.2L321.8 256.2L321.8 212.5L329.9 212.5L348.7 240.0L349.1 240.0L349.1 212.5ZM378.5 256.8L378.5 256.8Q373.5 256.8 369.9 254.7Q366.3 252.6 364.4 248.8Q362.4 245.0 362.4 239.9L362.4 239.9Q362.4 234.9 364.4 231.1Q366.3 227.2 369.9 225.1Q373.5 223.0 378.5 223.0L378.5 223.0Q383.5 223.0 387.1 225.1Q390.7 227.2 392.7 231.1Q394.6 234.9 394.6 239.9L394.6 239.9Q394.6 245.0 392.7 248.8Q390.7 252.6 387.1 254.7Q383.5 256.8 378.5 256.8ZM378.6 249.8L378.6 249.8Q380.8 249.8 382.3 248.5Q383.8 247.2 384.6 245.0Q385.4 242.7 385.4 239.9L385.4 239.9Q385.4 237.0 384.6 234.8Q383.8 232.5 382.3 231.2Q380.8 229.9 378.6 229.9L378.6 229.9Q376.3 229.9 374.7 231.2Q373.2 232.5 372.4 234.8Q371.6 237.0 371.6 239.9L371.6 239.9Q371.6 242.7 372.4 245.0Q373.2 247.2 374.7 248.5Q376.3 249.8 378.6 249.8ZM396.2 223.4L416.0 223.4L416.0 230.3L396.2 230.3L396.2 223.4ZM400.7 247.3L400.7 215.6L409.8 215.6L409.8 246.1Q409.8 247.4 410.2 248.1Q410.6 248.7 411.3 249.0Q411.9 249.3 412.9 249.3L412.9 249.3Q413.5 249.3 414.1 249.2Q414.8 249.1 415.1 249.0L415.1 249.0L416.5 255.8Q415.9 256.0 414.6 256.3Q413.4 256.5 411.6 256.6L411.6 256.6Q408.3 256.7 405.9 255.7Q403.4 254.7 402.1 252.6Q400.7 250.5 400.7 247.3L400.7 247.3ZM434.4 256.8L434.4 256.8Q429.4 256.8 425.7 254.7Q422.1 252.7 420.2 248.9Q418.2 245.1 418.2 239.9L418.2 239.9Q418.2 234.9 420.2 231.1Q422.1 227.3 425.7 225.1Q429.3 223.0 434.1 223.0L434.1 223.0Q437.3 223.0 440.1 224.0Q442.9 225.1 445.0 227.1Q447.1 229.2 448.3 232.3Q449.5 235.5 449.5 239.6L449.5 239.6L449.5 242.1L421.8 242.1L421.8 236.5L440.9 236.5Q440.9 234.5 440.1 233.0Q439.2 231.5 437.7 230.6Q436.2 229.8 434.2 229.8L434.2 229.8Q432.1 229.8 430.6 230.7Q429.0 231.7 428.1 233.3Q427.2 234.9 427.2 236.8L427.2 236.8L427.2 242.1Q427.2 244.6 428.1 246.3Q429.0 248.1 430.6 249.1Q432.3 250.0 434.6 250.0L434.6 250.0Q436.1 250.0 437.3 249.6Q438.6 249.2 439.5 248.3Q440.4 247.5 440.9 246.2L440.9 246.2L449.3 246.8Q448.6 249.8 446.6 252.1Q444.7 254.3 441.6 255.6Q438.5 256.8 434.4 256.8ZM480.6 232.8L480.6 232.8L472.3 233.3Q472.1 232.2 471.4 231.3Q470.7 230.5 469.5 230.0Q468.4 229.4 466.8 229.4L466.8 229.4Q464.7 229.4 463.3 230.3Q461.8 231.2 461.8 232.7L461.8 232.7Q461.8 233.9 462.7 234.7Q463.7 235.5 466.0 236.0L466.0 236.0L471.9 237.2Q476.7 238.1 479.0 240.3Q481.3 242.5 481.3 246.0L481.3 246.0Q481.3 249.2 479.5 251.7Q477.6 254.1 474.3 255.4Q471.0 256.8 466.8 256.8L466.8 256.8Q460.3 256.8 456.4 254.1Q452.6 251.4 451.9 246.7L451.9 246.7L460.9 246.2Q461.3 248.2 462.8 249.2Q464.4 250.3 466.8 250.3L466.8 250.3Q469.2 250.3 470.6 249.3Q472.1 248.4 472.1 246.9L472.1 246.9Q472.1 245.7 471.1 244.9Q470.1 244.1 467.9 243.7L467.9 243.7L462.3 242.5Q457.5 241.6 455.1 239.2Q452.8 236.9 452.8 233.2L452.8 233.2Q452.8 230.0 454.5 227.8Q456.2 225.5 459.4 224.2Q462.5 223.0 466.7 223.0L466.7 223.0Q472.9 223.0 476.4 225.6Q480.0 228.2 480.6 232.8Z"/></clipPath><defs><pattern id="satori_pattern_id-1_0" width="1" height="1" x="0" y="0" patternUnits="objectBoundingBox"><linearGradient id="satori_biid-1_0" x1="0" x2="1" y1="0" y2="0"><stop offset="0%" stop-color="#7928CA"/><stop offset="100%" stop-color="#FF0080"/></linearGradient><rect width="164" height="73" x="0" y="0" fill="url(#satori_biid-1_0)"/></pattern></defs><rect width="164" height="73" x="318" y="200" fill="url(#satori_pattern_id-1_0)" clip-path="url(#satori_bct-id-1)"/></svg>